<svg width="29" height="32" viewBox="0 0 29 32" fill="none" xmlns="http://www.w3.org/2000/svg">
<g clip-path="url(#clip0_1_1148)">
<path d="M4.31302 28.1292L2.04626 0.410278H26.9536L24.6844 28.125L14.4848 31.2078L4.31302 28.1292Z" fill="url(#paint0_linear_1_1148)"/>
<path d="M14.5 28.8515L22.7419 26.3601L24.681 2.67667H14.5V28.8515Z" fill="url(#paint1_linear_1_1148)"/>
<path d="M18.3149 16.3773L17.9505 20.7948L14.576 21.7879V25.2199L20.7785 23.3458L20.824 22.7884L21.3503 16.3773H18.3149Z" fill="white"/>
<path d="M14.5686 13.2182H18.5722L18.8487 9.84034H14.5686V6.54167H22.1553L22.0827 7.42674L21.3389 16.5169H14.5686V13.2182Z" fill="white"/>
<path d="M14.5866 21.785L14.5732 21.7893L11.2038 20.7974L10.9883 18.1665H7.95166L8.37538 23.346L14.5728 25.2213L14.5866 25.217V21.785Z" fill="#EBEBEB"/>
<path d="M14.5788 6.54167V9.84034H7.27081L7.21022 9.09909L7.07241 7.42674L7 6.54167H14.5788ZM14.5685 13.2187V16.5173H11.2416L11.181 15.7761L11.0429 14.1037L10.9708 13.2187H14.5685Z" fill="#EBEBEB"/>
</g>
<defs>
<linearGradient id="paint0_linear_1_1148" x1="18.3319" y1="55.2448" x2="16.5657" y2="-24.3405" gradientUnits="userSpaceOnUse">
<stop stop-color="#12C6FF"/>
<stop offset="1" stop-color="#031CFF"/>
</linearGradient>
<linearGradient id="paint1_linear_1_1148" x1="21.1568" y1="49.2806" x2="18.0409" y2="-18.2486" gradientUnits="userSpaceOnUse">
<stop stop-color="#12C6FF"/>
<stop offset="1" stop-color="#031CFF"/>
</linearGradient>
<clipPath id="clip0_1_1148">
<rect width="29" height="31.6181" fill="white"/>
</clipPath>
</defs>
</svg>
