<svg width="27" height="27" viewBox="0 0 27 27" fill="none" xmlns="http://www.w3.org/2000/svg">
<g clip-path="url(#clip0_1_1360)">
<path d="M8.53125 24.1875C10.7625 24.1875 12.5625 22.3875 12.5625 20.1562V16.125H8.53125C6.3 16.125 4.5 17.925 4.5 20.1562C4.5 22.3875 6.3 24.1875 8.53125 24.1875ZM4.5 12.0938C4.5 9.8625 6.3 8.0625 8.53125 8.0625H12.5625V16.125H8.53125C6.3 16.125 4.5 14.325 4.5 12.0938ZM4.5 4.03125C4.5 1.8 6.3 0 8.53125 0H12.5625V8.0625H8.53125C6.3 8.0625 4.5 6.2625 4.5 4.03125ZM12.5625 0H16.5938C18.825 0 20.625 1.8 20.625 4.03125C20.625 6.2625 18.825 8.0625 16.5938 8.0625H12.5625V0ZM20.625 12.0938C20.625 14.325 18.825 16.125 16.5938 16.125C14.3625 16.125 12.5625 14.325 12.5625 12.0938C12.5625 9.8625 14.3625 8.0625 16.5938 8.0625C18.825 8.0625 20.625 9.8625 20.625 12.0938Z" fill="url(#paint0_linear_1_1360)"/>
</g>
<defs>
<linearGradient id="paint0_linear_1_1360" x1="15.0433" y1="43.0656" x2="13.361" y2="-19.4241" gradientUnits="userSpaceOnUse">
<stop stop-color="#12C6FF"/>
<stop offset="1" stop-color="#031CFF"/>
</linearGradient>
<clipPath id="clip0_1_1360">
<rect width="24" height="24" fill="white"/>
</clipPath>
</defs>
</svg>
