<svg width="54" height="38" viewBox="0 0 54 38" fill="none" xmlns="http://www.w3.org/2000/svg">
<rect width="54" height="38" fill="#121212"/>
<path d="M7.05681 17.0008C6.99763 16.7579 6.91595 16.5405 6.81179 16.3486C6.70999 16.1537 6.58688 15.9872 6.44247 15.8493C6.30042 15.7114 6.13707 15.6079 5.95241 15.5389C5.76775 15.467 5.56652 15.431 5.34872 15.431C4.95809 15.431 4.61008 15.5554 4.30468 15.8043C3.99929 16.0532 3.75899 16.4191 3.5838 16.9019C3.41098 17.3817 3.32457 17.9664 3.32457 18.6561C3.32457 19.3518 3.41098 19.9411 3.5838 20.4239C3.75663 20.9067 3.99692 21.274 4.30468 21.5259C4.61245 21.7748 4.96993 21.8992 5.37713 21.8992C5.74645 21.8992 6.06605 21.8093 6.33593 21.6294C6.60819 21.4494 6.8177 21.1945 6.96449 20.8647C7.11127 20.5318 7.18466 20.142 7.18466 19.6952L7.48295 19.7537H5.50852V18.4492H8.45951V19.5557C8.45951 20.3444 8.32694 21.0266 8.06179 21.6024C7.79663 22.1781 7.43205 22.6219 6.96804 22.9338C6.50402 23.2427 5.97135 23.3971 5.37002 23.3971C4.70004 23.3971 4.11174 23.2067 3.60511 22.8259C3.10085 22.442 2.70668 21.8978 2.42259 21.1931C2.14086 20.4853 2 19.6457 2 18.6741C2 17.9304 2.08286 17.2662 2.24858 16.6815C2.41667 16.0967 2.65104 15.6004 2.9517 15.1926C3.25236 14.7817 3.60511 14.4699 4.00994 14.257C4.41477 14.0411 4.85511 13.9331 5.33096 13.9331C5.73342 13.9331 6.10866 14.0081 6.45667 14.158C6.80468 14.3049 7.11363 14.5149 7.38352 14.7877C7.65577 15.0606 7.87949 15.3845 8.05468 15.7593C8.22987 16.1342 8.34469 16.548 8.39914 17.0008H7.05681ZM11.2463 23.4106C10.9006 23.4106 10.5893 23.3326 10.3123 23.1767C10.0377 23.0178 9.81989 22.7839 9.65891 22.475C9.50029 22.1661 9.42098 21.7853 9.42098 21.3325C9.42098 20.9427 9.4778 20.6203 9.59144 20.3654C9.70507 20.1105 9.86014 19.9066 10.0566 19.7537C10.2531 19.6007 10.4745 19.4853 10.7207 19.4073C10.9693 19.3263 11.2261 19.2679 11.4913 19.2319C11.8109 19.1899 12.0701 19.1524 12.269 19.1194C12.4678 19.0834 12.6122 19.0295 12.7022 18.9575C12.7945 18.8825 12.8407 18.7671 12.8407 18.6111V18.5842C12.8407 18.2453 12.7614 17.9829 12.6028 17.797C12.4441 17.6111 12.2157 17.5181 11.9174 17.5181C11.6026 17.5181 11.3528 17.6051 11.1681 17.779C10.9859 17.9529 10.8628 18.1583 10.7988 18.3952L9.59854 18.1793C9.69324 17.7595 9.84949 17.4086 10.0673 17.1268C10.2851 16.8419 10.5514 16.629 10.8663 16.488C11.1812 16.3441 11.5292 16.2721 11.9103 16.2721C12.1731 16.2721 12.4347 16.3111 12.6951 16.3891C12.9555 16.467 13.1934 16.596 13.4089 16.7759C13.6243 16.9528 13.7971 17.1942 13.9273 17.5001C14.0599 17.806 14.1262 18.1883 14.1262 18.6471V23.2712H12.8904V22.3221H12.8478C12.7697 22.514 12.6596 22.6939 12.5175 22.8618C12.3779 23.0268 12.2015 23.1602 11.9884 23.2622C11.7778 23.3611 11.5304 23.4106 11.2463 23.4106ZM11.5801 22.2141C11.8381 22.2141 12.0618 22.1496 12.2512 22.0207C12.4406 21.8888 12.5862 21.7148 12.688 21.4989C12.7922 21.283 12.8442 21.0476 12.8442 20.7927V19.9786C12.804 20.0205 12.7353 20.0595 12.6383 20.0955C12.5436 20.1315 12.437 20.163 12.3187 20.19C12.2003 20.217 12.0831 20.241 11.9671 20.2619C11.8511 20.2829 11.7505 20.3009 11.6653 20.3159C11.4735 20.3489 11.3019 20.4029 11.1504 20.4778C10.9989 20.5528 10.8793 20.6578 10.7917 20.7927C10.7041 20.9247 10.6603 21.0956 10.6603 21.3055C10.6603 21.6054 10.7467 21.8318 10.9196 21.9847C11.0924 22.1376 11.3126 22.2141 11.5801 22.2141ZM15.4188 23.2712V16.3621H16.6475V17.5361H16.7114C16.8251 17.1403 17.0133 16.8314 17.2761 16.6095C17.5388 16.3846 17.8525 16.2721 18.2171 16.2721C18.5864 16.2721 18.8977 16.3861 19.1511 16.614C19.4067 16.8389 19.5867 17.1463 19.6908 17.5361H19.7476C19.8684 17.1522 20.072 16.8464 20.3584 16.6185C20.6473 16.3876 20.9894 16.2721 21.3847 16.2721C21.8866 16.2721 22.2962 16.473 22.6134 16.8749C22.9307 17.2767 23.0893 17.863 23.0893 18.6336V23.2712H21.8002V18.8855C21.8002 18.4567 21.7102 18.1433 21.5303 17.9454C21.3504 17.7445 21.1302 17.644 20.8698 17.644C20.5597 17.644 20.317 17.767 20.1418 18.0129C19.969 18.2558 19.8826 18.5722 19.8826 18.962V23.2712H18.6219V18.8181C18.6219 18.4612 18.5367 18.1763 18.3663 17.9634C18.1982 17.7505 17.978 17.644 17.7057 17.644C17.5211 17.644 17.353 17.704 17.2015 17.824C17.05 17.9409 16.9292 18.1074 16.8393 18.3233C16.7493 18.5362 16.7043 18.7851 16.7043 19.0699V23.2712H15.4188ZM26.8082 23.4061C26.2613 23.4061 25.789 23.2622 25.3913 22.9743C24.9959 22.6834 24.6917 22.2726 24.4786 21.7418C24.2656 21.208 24.159 20.5798 24.159 19.8571C24.159 19.1464 24.2656 18.5227 24.4786 17.9859C24.6941 17.4461 24.9947 17.0263 25.3806 16.7264C25.7665 16.4236 26.2199 16.2721 26.7407 16.2721C27.0769 16.2721 27.3941 16.3411 27.6924 16.479C27.9931 16.614 28.2582 16.8239 28.4879 17.1088C28.7199 17.3937 28.9022 17.7565 29.0348 18.1973C29.1673 18.6351 29.2336 19.1569 29.2336 19.7626V20.2619H24.7627V19.1644H28.0014C27.999 18.8525 27.9457 18.5751 27.8416 18.3323C27.7374 18.0864 27.5918 17.8929 27.4048 17.752C27.2201 17.6111 27.0047 17.5406 26.7585 17.5406C26.4957 17.5406 26.2649 17.6215 26.066 17.7835C25.8671 17.9424 25.7121 18.1523 25.6008 18.4132C25.4919 18.6711 25.4363 18.9545 25.4339 19.2634V20.2215C25.4339 20.6233 25.4919 20.9681 25.6079 21.256C25.7239 21.5409 25.8861 21.7598 26.0944 21.9127C26.3027 22.0627 26.5466 22.1376 26.826 22.1376C27.013 22.1376 27.1822 22.1047 27.3338 22.0387C27.4853 21.9697 27.6167 21.8693 27.7279 21.7373C27.8392 21.6054 27.9233 21.4419 27.9801 21.247L29.1804 21.418C29.1046 21.8198 28.9602 22.1706 28.7471 22.4705C28.5364 22.7674 28.2665 22.9983 27.9375 23.1632C27.6084 23.3251 27.232 23.4061 26.8082 23.4061ZM30.378 23.2712V14.0591H33.1621C33.6876 14.0591 34.1244 14.164 34.4724 14.3739C34.8228 14.5808 35.0844 14.8642 35.2572 15.2241C35.4324 15.5839 35.52 15.9917 35.52 16.4476C35.52 16.8224 35.4632 17.1433 35.3496 17.4101C35.2359 17.674 35.0832 17.8884 34.8915 18.0534C34.6997 18.2183 34.4855 18.3367 34.2487 18.4087V18.4987C34.5068 18.5167 34.7542 18.6171 34.9909 18.8001C35.23 18.98 35.4253 19.2349 35.5768 19.5647C35.7284 19.8946 35.8041 20.2934 35.8041 20.7612C35.8041 21.238 35.713 21.6669 35.5307 22.0477C35.3484 22.4255 35.0738 22.7239 34.7068 22.9428C34.3399 23.1617 33.8782 23.2712 33.3219 23.2712H30.378ZM31.6954 21.8768H33.1123C33.5906 21.8768 33.935 21.7613 34.1457 21.5304C34.3588 21.2965 34.4653 20.9966 34.4653 20.6308C34.4653 20.3579 34.4121 20.112 34.3055 19.8931C34.199 19.6712 34.0475 19.4973 33.851 19.3713C33.6545 19.2424 33.4201 19.1779 33.1479 19.1779H31.6954V21.8768ZM31.6954 17.9769H32.9987C33.226 17.9769 33.4308 17.9244 33.6131 17.8195C33.7954 17.7115 33.9386 17.5601 34.0427 17.3652C34.1493 17.1672 34.2025 16.9333 34.2025 16.6635C34.2025 16.3066 34.1031 16.0127 33.9043 15.7818C33.7078 15.5509 33.4154 15.4355 33.0271 15.4355H31.6954V17.9769ZM38.463 23.4106C38.1174 23.4106 37.8061 23.3326 37.5291 23.1767C37.2545 23.0178 37.0367 22.7839 36.8757 22.475C36.717 22.1661 36.6377 21.7853 36.6377 21.3325C36.6377 20.9427 36.6946 20.6203 36.8082 20.3654C36.9218 20.1105 37.0769 19.9066 37.2734 19.7537C37.4699 19.6007 37.6912 19.4853 37.9375 19.4073C38.186 19.3263 38.4429 19.2679 38.7081 19.2319C39.0277 19.1899 39.2869 19.1524 39.4858 19.1194C39.6846 19.0834 39.829 19.0295 39.919 18.9575C40.0113 18.8825 40.0575 18.7671 40.0575 18.6111V18.5842C40.0575 18.2453 39.9782 17.9829 39.8196 17.797C39.6609 17.6111 39.4325 17.5181 39.1342 17.5181C38.8193 17.5181 38.5696 17.6051 38.3849 17.779C38.2026 17.9529 38.0795 18.1583 38.0156 18.3952L36.8153 18.1793C36.91 17.7595 37.0662 17.4086 37.284 17.1268C37.5019 16.8419 37.7682 16.629 38.0831 16.488C38.3979 16.3441 38.7459 16.2721 39.1271 16.2721C39.3899 16.2721 39.6515 16.3111 39.9119 16.3891C40.1723 16.467 40.4102 16.596 40.6257 16.7759C40.8411 16.9528 41.0139 17.1942 41.1441 17.5001C41.2767 17.806 41.343 18.1883 41.343 18.6471V23.2712H40.1072V22.3221H40.0646C39.9865 22.514 39.8764 22.6939 39.7343 22.8618C39.5947 23.0268 39.4183 23.1602 39.2052 23.2622C38.9945 23.3611 38.7471 23.4106 38.463 23.4106ZM38.7968 22.2141C39.0549 22.2141 39.2786 22.1496 39.468 22.0207C39.6574 21.8888 39.803 21.7148 39.9048 21.4989C40.009 21.283 40.061 21.0476 40.061 20.7927V19.9786C40.0208 20.0205 39.9521 20.0595 39.8551 20.0955C39.7604 20.1315 39.6538 20.163 39.5355 20.19C39.4171 20.217 39.2999 20.241 39.1839 20.2619C39.0679 20.2829 38.9673 20.3009 38.8821 20.3159C38.6903 20.3489 38.5187 20.4029 38.3671 20.4778C38.2156 20.5528 38.0961 20.6578 38.0085 20.7927C37.9209 20.9247 37.8771 21.0956 37.8771 21.3055C37.8771 21.6054 37.9635 21.8318 38.1363 21.9847C38.3091 22.1376 38.5293 22.2141 38.7968 22.2141ZM46.9467 18.1883L45.7748 18.3502C45.7417 18.2003 45.6837 18.0594 45.6008 17.9274C45.5203 17.7955 45.4114 17.689 45.2741 17.6081C45.1368 17.5271 44.9687 17.4866 44.7698 17.4866C44.5023 17.4866 44.2774 17.5601 44.0951 17.707C43.9152 17.854 43.8264 18.0444 43.8288 18.2783C43.8264 18.4792 43.8844 18.6426 44.0028 18.7686C44.1235 18.8945 44.3224 18.998 44.5994 19.0789L45.5298 19.3308C46.0459 19.4718 46.4294 19.6952 46.6804 20.001C46.9337 20.3069 47.0615 20.7072 47.0639 21.202C47.0615 21.6369 46.9609 22.0207 46.762 22.3536C46.5655 22.6834 46.2921 22.9413 45.9417 23.1272C45.5913 23.3132 45.1889 23.4061 44.7343 23.4061C44.0667 23.4061 43.5293 23.2292 43.1221 22.8753C42.7149 22.5185 42.4723 22.0222 42.3941 21.3865L43.6477 21.2335C43.7045 21.5454 43.8252 21.7808 44.0099 21.9397C44.1946 22.0987 44.4349 22.1781 44.7308 22.1781C45.0362 22.1781 45.2812 22.0987 45.4659 21.9397C45.6529 21.7808 45.7464 21.5844 45.7464 21.3505C45.7464 21.1526 45.686 20.9891 45.5653 20.8602C45.4469 20.7312 45.2623 20.6323 45.0113 20.5633L44.0809 20.3159C43.5577 20.178 43.1706 19.9456 42.9197 19.6187C42.6688 19.2888 42.5445 18.872 42.5468 18.3682C42.5445 17.9424 42.6356 17.5736 42.8203 17.2617C43.0073 16.9468 43.2665 16.7039 43.598 16.533C43.9318 16.3591 44.3165 16.2721 44.7521 16.2721C45.3913 16.2721 45.8944 16.4445 46.2613 16.7894C46.6306 17.1343 46.8591 17.6006 46.9467 18.1883ZM50.5387 23.4061C49.9918 23.4061 49.5195 23.2622 49.1218 22.9743C48.7264 22.6834 48.4222 22.2726 48.2091 21.7418C47.9961 21.208 47.8895 20.5798 47.8895 19.8571C47.8895 19.1464 47.9961 18.5227 48.2091 17.9859C48.4246 17.4461 48.7252 17.0263 49.1111 16.7264C49.497 16.4236 49.9504 16.2721 50.4712 16.2721C50.8074 16.2721 51.1246 16.3411 51.4229 16.479C51.7236 16.614 51.9887 16.8239 52.2184 17.1088C52.4504 17.3937 52.6327 17.7565 52.7652 18.1973C52.8978 18.6351 52.9641 19.1569 52.9641 19.7626V20.2619H48.4932V19.1644H51.7318C51.7295 18.8525 51.6762 18.5751 51.572 18.3323C51.4679 18.0864 51.3223 17.8929 51.1353 17.752C50.9506 17.6111 50.7352 17.5406 50.4889 17.5406C50.2262 17.5406 49.9953 17.6215 49.7965 17.7835C49.5976 17.9424 49.4425 18.1523 49.3313 18.4132C49.2224 18.6711 49.1667 18.9545 49.1644 19.2634V20.2215C49.1644 20.6233 49.2224 20.9681 49.3384 21.256C49.4544 21.5409 49.6166 21.7598 49.8249 21.9127C50.0332 22.0627 50.2771 22.1376 50.5564 22.1376C50.7434 22.1376 50.9127 22.1047 51.0642 22.0387C51.2157 21.9697 51.3471 21.8693 51.4584 21.7373C51.5697 21.6054 51.6537 21.4419 51.7105 21.247L52.9108 21.418C52.8351 21.8198 52.6907 22.1706 52.4776 22.4705C52.2669 22.7674 51.997 22.9983 51.6679 23.1632C51.3389 23.3251 50.9624 23.4061 50.5387 23.4061Z" fill="url(#paint0_linear_90_15)"/>
<defs>
<linearGradient id="paint0_linear_90_15" x1="54.9292" y1="23.2712" x2="-0.0707663" y2="23.2712" gradientUnits="userSpaceOnUse">
<stop stop-color="#D9D9D9"/>
<stop offset="0.0001" stop-color="#00B2FF"/>
<stop offset="0.668078" stop-color="#8102FF"/>
<stop offset="0.9999" stop-color="#6F0079" stop-opacity="0.967946"/>
</linearGradient>
</defs>
</svg>
