<svg width="27" height="27" viewBox="0 0 27 27" fill="none" xmlns="http://www.w3.org/2000/svg">
<path d="M7.67817 11.475C7.44614 11.475 7.21411 11.3484 7.10864 11.1375L6.93989 10.8L6.87661 11.1797L6.85551 11.3484C6.85551 12.0445 7.40395 12.593 8.10004 12.593C8.79614 12.593 9.34458 12.0445 9.34458 11.3484C9.34458 10.6945 8.81723 10.1461 8.16333 10.1039L7.80473 10.0828L8.10004 10.3148C8.2477 10.4414 8.35317 10.6313 8.35317 10.8211C8.33208 11.1797 8.03676 11.475 7.67817 11.475V11.475ZM7.5727 8.64844C8.62739 8.64844 9.53442 9.36563 9.80864 10.3148C9.97739 9.85079 10.2516 9.45001 10.6102 9.1336C7.17192 8.92266 5.69536 5.86407 5.69536 5.86407L5.61098 9.72422C6.01176 9.09141 6.72895 8.64844 7.5727 8.64844V8.64844ZM13.0149 13.0781C13.7954 13.0781 14.4282 12.4453 14.4282 11.6648C14.4282 10.9055 13.8375 10.2727 13.0782 10.2516L12.7618 10.2305L13.0149 10.4203C13.2047 10.568 13.3102 10.8 13.3102 11.0531C13.3102 11.4961 12.9516 11.8547 12.5086 11.8547C12.2133 11.8547 11.9391 11.6859 11.7915 11.4328L11.6438 11.1586L11.6016 11.475L11.5805 11.6648C11.6016 12.4242 12.2344 13.0781 13.0149 13.0781ZM26.5782 23.0344C26.4938 22.7391 26.4094 22.4438 26.325 22.1695C25.7977 20.2711 25.3969 18.7945 23.7305 18.9422C23.4774 18.9633 23.2665 19.0477 23.0766 19.1742L21.4102 18.1195H21.3469L21.2204 17.7188L20.9672 17.8875C20.4399 17.55 19.8493 17.2547 19.2586 16.9805C21.1571 14.7234 22.1907 10.7367 21.4735 4.21876C21.4102 3.64922 21.0938 3.56485 20.8829 4.17657C20.7141 4.70391 19.5961 8.03672 13.8375 8.96485C14.5969 9.45001 15.1032 10.2938 15.1032 11.2641C15.1032 12.7828 13.8797 14.0063 12.361 14.0063C11.0743 14.0063 9.97739 13.0992 9.70317 11.8969C9.34458 12.7406 8.52192 13.3313 7.55161 13.3313C6.58129 13.3313 5.75864 12.7406 5.40004 11.8969C5.37895 11.9391 5.35786 11.9813 5.33676 12.0023C5.31567 11.9602 5.27348 11.918 5.25239 11.8547C4.11333 10.2938 2.29926 9.66094 1.18129 10.4625C0.0633255 11.2852 0.0844193 13.2047 1.22348 14.7656C2.1727 16.0734 3.58598 16.7273 4.68286 16.432C7.86801 18.7945 13.7532 20.8406 17.6977 18.3305C18.4782 18.7734 19.3641 19.1953 20.1868 19.4906V19.5117L20.2711 19.7648L20.6086 19.6383L20.6508 19.6805L22.5071 20.3555C22.5282 20.9461 22.8868 21.6 23.6461 21.8953C25.0594 22.4438 26.4094 23.1188 26.4094 23.1398L26.6204 23.2453L26.5782 23.0344V23.0344ZM1.05473 12.0445C1.05473 11.3695 1.51879 10.8211 2.06723 10.8211C2.63676 10.8211 3.07973 11.3695 3.07973 12.0445C3.07973 12.7195 2.61567 13.268 2.06723 13.268C1.4977 13.268 1.05473 12.7195 1.05473 12.0445V12.0445ZM8.77504 15.968C12.6352 16.7484 14.618 16.0313 15.7571 15.1242C15.4618 14.7234 14.9344 14.3016 14.9344 14.3016C14.9344 14.3016 16.2844 14.6813 16.7696 15.293C16.9805 15.5672 17.0438 15.7992 17.0227 16.0313C16.3477 15.7992 15.8414 15.6516 15.736 15.6094C15.3141 15.4195 14.9133 15.5461 14.8079 15.8625C14.7235 16.0945 14.7868 16.3688 14.9977 16.5797C13.6688 17.1914 11.4961 16.9383 8.77504 15.968V15.968Z" fill="url(#paint0_linear_1_1345)"/>
<defs>
<linearGradient id="paint0_linear_1_1345" x1="17.5288" y1="38.4585" x2="16.8577" y2="-11.9274" gradientUnits="userSpaceOnUse">
<stop stop-color="#12C6FF"/>
<stop offset="1" stop-color="#031CFF"/>
</linearGradient>
</defs>
</svg>
