<svg width="21" height="21" viewBox="0 0 21 21" fill="none" xmlns="http://www.w3.org/2000/svg">
<path d="M20.3198 9.43269L11.2774 0.390551C10.757 -0.130184 9.91236 -0.130184 9.39113 0.390551L7.5136 2.26841L9.89546 4.65027C10.4492 4.4634 11.0838 4.58875 11.5249 5.02991C11.9684 5.47386 12.0928 6.11387 11.9013 6.66939L14.1969 8.96511C14.7522 8.77365 15.3932 8.89736 15.8365 9.34164C16.4567 9.9613 16.4567 10.9659 15.8365 11.5858C15.6891 11.7333 15.5141 11.8503 15.3215 11.9301C15.129 12.0099 14.9225 12.0509 14.7141 12.0509C14.5056 12.0509 14.2992 12.0099 14.1066 11.9301C13.914 11.8503 13.739 11.7333 13.5916 11.5858C13.3702 11.3643 13.2193 11.0822 13.1578 10.775C13.0964 10.4679 13.1271 10.1494 13.2463 9.85975L11.1056 7.71906L11.1053 13.3531C11.2606 13.4296 11.4024 13.5309 11.5251 13.653C12.1449 14.2727 12.1449 15.2769 11.5251 15.8979C10.9051 16.5176 9.90022 16.5176 9.28088 15.8979C8.66106 15.2771 8.66106 14.2729 9.28088 13.653C9.42939 13.5043 9.60601 13.3866 9.80047 13.3069V7.62062C9.60586 7.54108 9.42918 7.42332 9.28088 7.27429C8.81134 6.80507 8.6983 6.116 8.93914 5.53916L6.59092 3.19093L0.390666 9.39086C0.140522 9.64108 0 9.9804 0 10.3342C0 10.688 0.140522 11.0274 0.390666 11.2776L9.4333 20.3197C9.95403 20.8404 10.7983 20.8404 11.3199 20.3197L20.32 11.3196C20.5701 11.0693 20.7106 10.7299 20.7105 10.3761C20.7105 10.0223 20.57 9.68294 20.3198 9.43269V9.43269Z" fill="url(#paint0_linear_1_1191)"/>
<defs>
<linearGradient id="paint0_linear_1_1191" x1="13.5415" y1="36.8744" x2="12.5808" y2="-16.6532" gradientUnits="userSpaceOnUse">
<stop stop-color="#12C6FF"/>
<stop offset="1" stop-color="#031CFF"/>
</linearGradient>
</defs>
</svg>
