<svg width="23" height="23" viewBox="0 0 23 23" fill="none" xmlns="http://www.w3.org/2000/svg">
<g clip-path="url(#clip0_1_1200)">
<path fill-rule="evenodd" clip-rule="evenodd" d="M11.4999 0.916931C5.50786 0.916931 0.648926 5.77478 0.648926 11.7679C0.648926 16.5623 3.75806 20.6295 8.06948 22.0645C8.6116 22.1652 8.81069 21.8291 8.81069 21.5425C8.81069 21.2838 8.80063 20.429 8.79596 19.5223C5.77721 20.1787 5.14021 18.242 5.14021 18.242C4.64661 16.9878 3.93541 16.6543 3.93541 16.6543C2.95072 15.9809 4.00962 15.9949 4.00962 15.9949C5.09907 16.0712 5.67299 17.1131 5.67299 17.1131C6.64078 18.7716 8.21143 18.2922 8.83064 18.0151C8.92803 17.3138 9.20924 16.8349 9.51956 16.5639C7.10941 16.2899 4.57564 15.3593 4.57564 11.2015C4.57564 10.0168 4.9997 9.04887 5.69383 8.28879C5.58099 8.01567 5.20957 6.91202 5.79877 5.41738C5.79877 5.41738 6.70978 5.12575 8.78338 6.52965C9.64911 6.28905 10.5776 6.16812 11.4999 6.16399C12.4217 6.16812 13.3507 6.28869 14.218 6.52929C16.2891 5.12539 17.199 5.41702 17.199 5.41702C17.7897 6.91149 17.4183 8.01531 17.3056 8.28843C18.0013 9.04851 18.4224 10.0165 18.4224 11.2012C18.4224 15.3688 15.8839 16.2863 13.4677 16.5551C13.857 16.8919 14.2038 17.5524 14.2038 18.5646C14.2038 20.0165 14.1913 21.185 14.1913 21.5424C14.1913 21.8311 14.3868 22.1695 14.9366 22.0629C19.2455 20.6265 22.351 16.5605 22.351 11.7679C22.3509 5.77514 17.4925 0.917111 11.4999 0.917111V0.916931Z" fill="url(#paint0_linear_1_1200)"/>
<path d="M4.75869 16.4964C4.73479 16.5503 4.64998 16.5664 4.57272 16.5296C4.49365 16.4944 4.44963 16.4209 4.47515 16.3668C4.49851 16.3111 4.5835 16.2958 4.66202 16.333C4.74108 16.3684 4.78601 16.4426 4.75851 16.4965L4.75869 16.4964ZM5.19821 16.9867C5.14664 17.0347 5.04547 17.0124 4.97683 16.9364C4.90568 16.8609 4.89238 16.7598 4.94503 16.7111C4.99858 16.6633 5.09669 16.6859 5.16784 16.7614C5.23864 16.8379 5.25265 16.9382 5.19839 16.9869L5.19821 16.9867ZM5.62622 17.6115C5.55974 17.6579 5.45085 17.6146 5.38365 17.5181C5.31716 17.4214 5.31716 17.3055 5.38544 17.2593C5.45247 17.213 5.55974 17.2548 5.62802 17.3504C5.69415 17.4483 5.69415 17.5642 5.62622 17.6113V17.6115ZM6.21219 18.2154C6.15289 18.281 6.02603 18.2634 5.93331 18.1741C5.83861 18.0866 5.8122 17.9621 5.87168 17.8967C5.93205 17.8309 6.05945 17.8492 6.15271 17.938C6.2474 18.0253 6.27597 18.15 6.21254 18.2153L6.21219 18.2154ZM7.02078 18.566C6.99436 18.651 6.87254 18.6896 6.74945 18.6533C6.62672 18.6161 6.5464 18.5168 6.57156 18.4309C6.59672 18.3452 6.71944 18.3051 6.84325 18.3437C6.96597 18.3807 7.04629 18.4796 7.02078 18.566ZM7.90897 18.6309C7.91203 18.7204 7.80781 18.7944 7.67897 18.7962C7.54906 18.7992 7.44394 18.7266 7.44269 18.6386C7.44269 18.5482 7.54475 18.4751 7.67448 18.4726C7.80332 18.4702 7.90915 18.5421 7.90915 18.6307L7.90897 18.6309ZM8.73518 18.4904C8.75063 18.5775 8.66097 18.6672 8.53285 18.6911C8.40707 18.7144 8.29027 18.6602 8.2741 18.5737C8.25865 18.4842 8.34993 18.3946 8.47571 18.3714C8.604 18.3493 8.719 18.4019 8.73518 18.4905V18.4904Z" fill="#181616"/>
</g>
<defs>
<linearGradient id="paint0_linear_1_1200" x1="14.8388" y1="38.6029" x2="13.8812" y2="-16.1036" gradientUnits="userSpaceOnUse">
<stop stop-color="#12C6FF"/>
<stop offset="1" stop-color="#031CFF"/>
</linearGradient>
<clipPath id="clip0_1_1200">
<rect width="23" height="23" fill="white"/>
</clipPath>
</defs>
</svg>
