<svg width="29" height="32" viewBox="0 0 29 32" fill="none" xmlns="http://www.w3.org/2000/svg">
<g clip-path="url(#clip0_1_1139)">
<path d="M4.31302 28.1292L2.04626 0.410278H26.9536L24.6844 28.125L14.4848 31.2078L4.31302 28.1292Z" fill="url(#paint0_linear_1_1139)"/>
<path d="M14.5 28.8515L22.7419 26.3601L24.681 2.67667H14.5V28.8515Z" fill="url(#paint1_linear_1_1139)"/>
<path d="M14.4999 12.9572H10.3738L10.0888 9.4758H14.4999V6.07636H6.68103L6.7558 6.98835L7.52203 16.3569H14.4999V12.9572ZM14.4999 21.7863L14.4861 21.7905L11.0136 20.7679L10.7918 18.0569H7.66137L8.09818 23.3947L14.4857 25.3278L14.4999 25.3236V21.7863Z" fill="#EBEBEB"/>
<path d="M14.4891 12.9572V16.3569H18.3287L17.9669 20.7659L14.4891 21.7893V25.3263L20.8816 23.3947L20.9285 22.8204L21.6612 13.8702L21.7371 12.9572H20.897H14.4891ZM14.4891 6.07636V9.4758H22.021L22.0835 8.71203L22.2258 6.98835L22.3003 6.07636H14.4891Z" fill="white"/>
</g>
<defs>
<linearGradient id="paint0_linear_1_1139" x1="18.3319" y1="55.2448" x2="16.5657" y2="-24.3405" gradientUnits="userSpaceOnUse">
<stop stop-color="#12C6FF"/>
<stop offset="1" stop-color="#031CFF"/>
</linearGradient>
<linearGradient id="paint1_linear_1_1139" x1="21.1568" y1="49.2806" x2="18.0409" y2="-18.2486" gradientUnits="userSpaceOnUse">
<stop stop-color="#12C6FF"/>
<stop offset="1" stop-color="#031CFF"/>
</linearGradient>
<clipPath id="clip0_1_1139">
<rect width="29" height="31.6181" fill="white"/>
</clipPath>
</defs>
</svg>
