<svg width="20" height="20" viewBox="0 0 20 20" fill="none" xmlns="http://www.w3.org/2000/svg">
<g clip-path="url(#clip0_1_1237)">
<path d="M0.3125 0.15625V19.6875H19.8438V0.15625H0.3125ZM10.6436 16.7989C10.3553 17.3847 9.805 17.7695 9.16734 17.9553C8.1875 18.1803 7.25031 18.052 6.55312 17.6336C6.08656 17.3473 5.72219 16.9067 5.47484 16.3991L6.96234 15.4881C6.97531 15.4936 7.01438 15.5642 7.06656 15.6555C7.25625 15.9733 7.41984 16.1983 7.74141 16.3563C8.05734 16.4641 8.75094 16.533 9.01875 15.977C9.18234 15.6942 9.13031 14.7852 9.13031 13.7794C9.13016 12.1989 9.1375 10.625 9.1375 9.0625H10.967C10.967 10.7812 10.9764 12.4091 10.967 14.0863C10.9709 15.1144 11.0602 16.0309 10.6436 16.7989ZM18.2333 16.282C17.5973 18.4573 14.0517 18.528 12.6348 17.0908C12.3355 16.7525 12.1478 16.5758 11.9692 16.1853C12.7222 15.7522 12.7222 15.7522 13.4548 15.3283C13.8528 15.94 14.2208 16.2764 14.8828 16.4141C15.7809 16.5238 16.6845 16.2152 16.4819 15.2612C16.2736 14.4822 14.6428 14.2927 13.533 13.4595C12.4063 12.7028 12.1422 10.8641 13.0681 9.81344C13.3767 9.42484 13.903 9.13484 14.4552 8.99547L15.0314 8.92094C16.1378 8.89859 16.8294 9.19078 17.337 9.75766C17.4783 9.90078 17.5936 10.0552 17.8092 10.3897C17.2198 10.7653 17.2217 10.7617 16.3775 11.3083C16.1972 10.9198 15.898 10.6761 15.5817 10.5702C15.0908 10.4214 14.4717 10.5831 14.3433 11.1019C14.2987 11.2617 14.308 11.4105 14.3788 11.6745C14.5777 12.1281 15.2452 12.3253 15.8439 12.6005C17.5675 13.2995 18.1495 14.0491 18.2927 14.9413C18.4305 15.7094 18.2594 16.2077 18.2333 16.282V16.282Z" fill="url(#paint0_linear_1_1237)"/>
</g>
<defs>
<linearGradient id="paint0_linear_1_1237" x1="13.0829" y1="34.9314" x2="12.1769" y2="-15.5489" gradientUnits="userSpaceOnUse">
<stop stop-color="#12C6FF"/>
<stop offset="1" stop-color="#031CFF"/>
</linearGradient>
<clipPath id="clip0_1_1237">
<rect width="20" height="20" fill="white"/>
</clipPath>
</defs>
</svg>
