<svg width="39" height="39" viewBox="0 0 39 39" fill="none" xmlns="http://www.w3.org/2000/svg">
<path d="M0.5 0.5H38.5V38.5H0.5V0.5Z" fill="#D9D9D9"/>
<path d="M11.764 18.048C12.484 18.048 13 18.222 13.312 18.57C13.624 18.918 13.78 19.492 13.78 20.292V23.562C13.78 23.854 13.634 24 13.342 24C13.046 24 12.898 23.854 12.898 23.562V20.292C12.898 19.812 12.81 19.466 12.634 19.254C12.458 19.038 12.168 18.93 11.764 18.93H11.272C10.792 18.93 10.448 19.038 10.24 19.254C10.036 19.466 9.934 19.812 9.934 20.292V23.562C9.934 23.854 9.788 24 9.496 24C9.2 24 9.052 23.854 9.052 23.562V20.292C9.052 19.812 8.964 19.466 8.788 19.254C8.612 19.038 8.322 18.93 7.918 18.93H7.426C6.946 18.93 6.602 19.038 6.394 19.254C6.19 19.466 6.088 19.812 6.088 20.292V23.562C6.088 23.854 5.942 24 5.65 24C5.354 24 5.206 23.854 5.206 23.562V18.492C5.206 18.2 5.354 18.054 5.65 18.054C5.942 18.054 6.088 18.2 6.088 18.492V18.834C6.288 18.554 6.512 18.354 6.76 18.234C7.012 18.11 7.318 18.048 7.678 18.048H7.918C8.39 18.048 8.762 18.12 9.034 18.264C9.31 18.404 9.522 18.632 9.67 18.948C9.87 18.624 10.092 18.394 10.336 18.258C10.58 18.118 10.892 18.048 11.272 18.048H11.764ZM17.449 23.994C16.945 23.994 16.551 23.89 16.267 23.682C15.983 23.47 15.805 23.152 15.733 22.728C15.709 22.584 15.737 22.47 15.817 22.386C15.901 22.302 16.017 22.26 16.165 22.26C16.305 22.26 16.407 22.296 16.471 22.368C16.539 22.44 16.593 22.548 16.633 22.692C16.677 22.856 16.761 22.968 16.885 23.028C17.009 23.084 17.197 23.112 17.449 23.112H19.417C19.749 23.112 19.973 23.056 20.089 22.944C20.209 22.828 20.269 22.6 20.269 22.26C20.269 21.92 20.209 21.692 20.089 21.576C19.973 21.46 19.749 21.402 19.417 21.402H17.479C16.923 21.402 16.505 21.264 16.225 20.988C15.945 20.708 15.805 20.29 15.805 19.734C15.805 19.166 15.941 18.744 16.213 18.468C16.489 18.188 16.911 18.048 17.479 18.048H19.357C20.285 18.048 20.823 18.446 20.971 19.242C20.995 19.39 20.965 19.504 20.881 19.584C20.801 19.664 20.687 19.704 20.539 19.704C20.403 19.704 20.301 19.668 20.233 19.596C20.165 19.524 20.113 19.422 20.077 19.29C20.037 19.15 19.961 19.056 19.849 19.008C19.741 18.956 19.577 18.93 19.357 18.93H17.479C17.159 18.93 16.947 18.982 16.843 19.086C16.739 19.19 16.687 19.406 16.687 19.734C16.687 20.038 16.741 20.246 16.849 20.358C16.961 20.466 17.171 20.52 17.479 20.52H19.417C20.001 20.52 20.435 20.664 20.719 20.952C21.007 21.24 21.151 21.676 21.151 22.26C21.151 22.844 21.007 23.28 20.719 23.568C20.435 23.852 20.001 23.994 19.417 23.994H17.449ZM25.594 24C25.45 24 25.34 23.964 25.264 23.892C25.188 23.816 25.15 23.706 25.15 23.562V16.884H22.75C22.606 16.884 22.496 16.848 22.42 16.776C22.344 16.7 22.306 16.59 22.306 16.446C22.306 16.302 22.344 16.192 22.42 16.116C22.496 16.04 22.606 16.002 22.75 16.002H28.438C28.582 16.002 28.69 16.04 28.762 16.116C28.838 16.192 28.876 16.302 28.876 16.446C28.876 16.59 28.838 16.7 28.762 16.776C28.69 16.848 28.582 16.884 28.438 16.884H26.032V23.562C26.032 23.698 25.994 23.806 25.918 23.886C25.842 23.962 25.734 24 25.594 24ZM29.7555 24C29.4595 24 29.3115 23.852 29.3115 23.556V18.492C29.3115 18.2 29.4595 18.054 29.7555 18.054C30.0475 18.054 30.1935 18.2 30.1935 18.492V19.116C30.4215 18.768 30.7215 18.504 31.0935 18.324C31.4695 18.144 31.9055 18.054 32.4015 18.054C32.6975 18.054 32.8455 18.2 32.8455 18.492C32.8455 18.788 32.6975 18.936 32.4015 18.936C31.7015 18.936 31.1655 19.076 30.7935 19.356C30.4215 19.632 30.2215 20.01 30.1935 20.49V23.556C30.1935 23.852 30.0475 24 29.7555 24Z" fill="black"/>
</svg>
