<svg width="33" height="33" viewBox="0 0 33 33" fill="none" xmlns="http://www.w3.org/2000/svg">
<path d="M16.0224 18.8764C17.5987 18.8764 18.8764 17.5986 18.8764 16.0224C18.8764 14.4462 17.5987 13.1684 16.0224 13.1684C14.4462 13.1684 13.1685 14.4462 13.1685 16.0224C13.1685 17.5986 14.4462 18.8764 16.0224 18.8764Z" fill="url(#paint0_linear_1_1131)"/>
<path d="M26.8625 11.3158C26.3118 11.1155 25.736 10.9153 25.1351 10.74C25.2853 10.1392 25.4105 9.53833 25.5106 8.96253C26.0364 5.65791 25.4606 3.32965 23.8583 2.42839C23.3827 2.15301 22.8569 2.02783 22.2561 2.02783C20.5036 2.02783 18.2755 3.32965 16.0224 5.5077C13.7692 3.32965 11.5411 2.02783 9.78866 2.02783C9.18782 2.02783 8.66208 2.15301 8.18642 2.42839C6.58418 3.35469 6.00837 5.68294 6.53411 8.96253C6.63425 9.53833 6.75942 10.1392 6.90963 10.74C6.30879 10.9153 5.73299 11.0905 5.18222 11.3158C2.05284 12.5175 0.350464 14.1698 0.350464 16.0224C0.350464 17.875 2.07788 19.5273 5.18222 20.729C5.73299 20.9293 6.30879 21.1295 6.90963 21.3048C6.75942 21.9056 6.63425 22.5065 6.53411 23.0823C6.00837 26.3869 6.58418 28.7151 8.18642 29.6164C8.66208 29.8918 9.18782 30.017 9.78866 30.017C11.5661 30.017 13.7943 28.7151 16.0224 26.5371C18.2755 28.7151 20.5036 30.017 22.2561 30.017C22.8569 30.017 23.3827 29.8918 23.8583 29.6164C25.4606 28.6901 26.0364 26.3619 25.5106 23.0823C25.4105 22.5065 25.2853 21.9056 25.1351 21.3048C25.736 21.1295 26.3118 20.9543 26.8625 20.729C29.9919 19.5273 31.6943 17.875 31.6943 16.0224C31.6943 14.1698 29.9919 12.5175 26.8625 11.3158V11.3158ZM23.1573 3.68014C24.1838 4.28098 24.5343 6.13357 24.1087 8.76225C24.0336 9.28798 23.9084 9.83875 23.7582 10.4146C22.4564 10.1141 21.0794 9.91386 19.6274 9.78868C18.7762 8.587 17.9 7.5105 17.0238 6.53413C18.8764 4.70658 20.754 3.45483 22.2811 3.45483C22.6066 3.45483 22.907 3.52993 23.1573 3.68014V3.68014ZM20.3534 18.5259C19.9028 19.327 19.3771 20.1281 18.8263 20.9293C17.9 21.0044 16.9737 21.0294 16.0224 21.0294C15.046 21.0294 14.1197 21.0044 13.2185 20.9293C12.6677 20.1281 12.167 19.327 11.7164 18.5259C11.2407 17.6997 10.7901 16.8486 10.3895 16.0224C10.7901 15.1962 11.2407 14.3451 11.7164 13.5189C12.167 12.7178 12.6927 11.9167 13.2435 11.1155C14.1698 11.0404 15.0961 11.0154 16.0474 11.0154C17.0238 11.0154 17.9501 11.0404 18.8513 11.1155C19.4021 11.9167 19.9028 12.7178 20.3534 13.5189C20.8291 14.3451 21.2797 15.1962 21.6803 16.0224C21.2547 16.8486 20.8291 17.6747 20.3534 18.5259ZM22.4313 17.6997C22.8069 18.576 23.1073 19.4272 23.3827 20.2783C22.5315 20.4786 21.6302 20.6288 20.6789 20.754C20.9793 20.2783 21.3048 19.7776 21.5801 19.2519C21.8806 18.7262 22.1559 18.2004 22.4313 17.6997ZM16.0224 24.4842C15.4215 23.8333 14.8457 23.1323 14.295 22.4063C14.8708 22.4314 15.4466 22.4564 16.0224 22.4564C16.5982 22.4564 17.174 22.4314 17.7498 22.4063C17.199 23.1323 16.6232 23.8333 16.0224 24.4842ZM11.3659 20.729C10.4145 20.6038 9.51327 20.4536 8.66208 20.2533C8.93747 19.4272 9.23789 18.5509 9.61341 17.6747C9.8888 18.1754 10.1642 18.7011 10.4646 19.2018C10.765 19.7526 11.0654 20.2283 11.3659 20.729V20.729ZM9.61341 14.3451C9.23789 13.4688 8.93747 12.6176 8.66208 11.7664C9.51327 11.5662 10.4145 11.416 11.3659 11.2908C11.0654 11.7664 10.74 12.2671 10.4646 12.7929C10.1642 13.3186 9.8888 13.8444 9.61341 14.3451V14.3451ZM16.0224 7.56057C16.6232 8.21148 17.199 8.91246 17.7498 9.63847C17.174 9.61344 16.5982 9.5884 16.0224 9.5884C15.4466 9.5884 14.8708 9.61344 14.295 9.63847C14.8457 8.91246 15.4215 8.21148 16.0224 7.56057ZM21.5801 12.8179L20.6789 11.3158C21.6302 11.441 22.5315 11.5912 23.3827 11.7915C23.1073 12.6176 22.8069 13.4939 22.4313 14.3701C22.1559 13.8444 21.8806 13.3186 21.5801 12.8179ZM7.93607 8.76225C7.51047 6.13357 7.86096 4.28098 8.8874 3.68014C9.13775 3.52993 9.43817 3.45483 9.76362 3.45483C11.2657 3.45483 13.1433 4.68154 15.021 6.53413C14.1447 7.48546 13.2685 8.587 12.4173 9.78868C10.9653 9.91386 9.58838 10.1392 8.28656 10.4146C8.13635 9.83875 8.03621 9.28798 7.93607 8.76225V8.76225ZM1.75242 16.0224C1.75242 14.8458 3.17942 13.594 5.68292 12.6677C6.18362 12.4674 6.73439 12.2922 7.28516 12.142C7.68572 13.3937 8.18642 14.7206 8.78726 16.0474C8.18642 17.3743 7.66068 18.6761 7.28516 19.9279C3.83033 18.9265 1.75242 17.4244 1.75242 16.0224ZM8.8874 28.3647C7.86096 27.7638 7.51047 25.9112 7.93607 23.2825C8.01117 22.7568 8.13635 22.206 8.28656 21.6302C9.58838 21.9307 10.9653 22.1309 12.4173 22.2561C13.2685 23.4578 14.1447 24.5343 15.021 25.5107C13.1684 27.3382 11.2908 28.59 9.76362 28.59C9.43817 28.59 9.13775 28.5149 8.8874 28.3647ZM24.1087 23.2825C24.5343 25.9112 24.1838 27.7638 23.1573 28.3647C22.907 28.5149 22.6066 28.59 22.2811 28.59C20.779 28.59 18.9014 27.3633 17.0238 25.5107C17.9 24.5593 18.7762 23.4578 19.6274 22.2561C21.0794 22.1309 22.4564 21.9056 23.7582 21.6302C23.9084 22.206 24.0085 22.7568 24.1087 23.2825V23.2825ZM26.3618 19.3771C25.8611 19.5774 25.3104 19.7526 24.7596 19.9028C24.359 18.6511 23.8583 17.3242 23.2575 15.9974C23.8583 14.6705 24.3841 13.3687 24.7596 12.1169C28.2144 13.1183 30.2923 14.6204 30.2923 16.0224C30.2923 17.199 28.8403 18.4508 26.3618 19.3771Z" fill="url(#paint1_linear_1_1131)"/>
<defs>
<linearGradient id="paint0_linear_1_1131" x1="16.9006" y1="23.3314" x2="16.6358" y2="8.5786" gradientUnits="userSpaceOnUse">
<stop stop-color="#12C6FF"/>
<stop offset="1" stop-color="#031CFF"/>
</linearGradient>
<linearGradient id="paint1_linear_1_1131" x1="20.8445" y1="51.8621" x2="19.6851" y2="-20.483" gradientUnits="userSpaceOnUse">
<stop stop-color="#12C6FF"/>
<stop offset="1" stop-color="#031CFF"/>
</linearGradient>
</defs>
</svg>
