<svg width="23" height="23" viewBox="0 0 23 23" fill="none" xmlns="http://www.w3.org/2000/svg">
<g clip-path="url(#clip0_1_1284)">
<path d="M15.936 16.2501C14.3188 19.5563 11.4869 21.7809 7.74044 22.5122C7.16601 22.6529 6.5763 22.7217 5.9849 22.717C3.82865 22.717 1.85208 21.8186 0.892553 20.347C-0.395807 18.3866 -0.834244 14.2304 3.41357 11.1559C3.49982 11.6249 3.67591 12.2682 3.79271 12.6491C2.95884 13.2686 2.27628 14.0692 1.79638 14.9905C1.00576 16.543 1.0938 18.0937 2.02997 19.5276C2.67685 20.4943 3.70107 21.0819 5.01818 21.2616C6.66328 21.4698 8.33221 21.1555 9.78888 20.3631C12.0727 19.1628 13.5947 17.7289 14.5901 15.7685C14.3086 15.4776 14.142 15.0946 14.1211 14.6904C14.1061 14.2566 14.2638 13.8346 14.5595 13.5169C14.8553 13.1992 15.265 13.0119 15.6988 12.9959H15.7599C16.1818 12.9938 16.5884 13.154 16.8955 13.4433C17.2026 13.7326 17.3867 14.1288 17.4098 14.5501C17.4329 14.9714 17.2931 15.3854 17.0195 15.7065C16.7458 16.0276 16.3592 16.2312 15.9396 16.2752L15.936 16.2501ZM21.0876 12.6204C23.2816 15.1073 23.3409 18.0344 22.4928 19.7324C21.7022 21.2831 19.6178 22.8356 16.8147 22.8356C15.5061 22.8089 14.2188 22.4994 13.0412 21.9282C13.4527 21.6353 14.0367 21.1663 14.3583 20.8734C15.2665 21.2669 16.2437 21.4757 17.2333 21.488C19.0482 21.488 20.4228 20.6398 21.2422 19.0891C21.7686 18.0649 21.7992 16.8646 21.3015 15.6355C20.6907 14.0891 19.6039 12.7771 18.1983 11.8891C16.3541 10.6459 14.18 9.98315 11.9559 9.98617H11.4294C11.3067 10.2698 11.1069 10.5133 10.8529 10.6893C10.5988 10.8652 10.3006 10.9665 9.99193 10.9816H9.93622C9.50932 10.9764 9.10127 10.8049 8.79875 10.5037C8.49624 10.2024 8.32308 9.79506 8.31606 9.36818C8.30905 8.9413 8.46872 8.5285 8.76117 8.21745C9.05362 7.9064 9.45581 7.72162 9.88232 7.70234H9.94162C10.2388 7.70257 10.5302 7.78469 10.7838 7.9397C11.0374 8.09471 11.2434 8.3166 11.3791 8.58102H11.8481C15.5856 8.58102 18.8667 10.0149 21.0876 12.6204V12.6204ZM6.21849 16.7532C6.18772 16.4548 6.26001 16.1549 6.42333 15.9033C4.78458 13.0642 3.90771 9.46508 5.25357 5.71859C6.21849 2.90289 8.64787 1 11.2821 1C14.0924 1 17.0195 3.45992 17.3699 8.20008C16.9315 8.05453 16.2918 7.8407 15.9072 7.76164C15.812 6.21094 14.5021 2.34766 11.3989 2.40516C10.2866 2.4357 8.64786 2.96219 7.80513 4.04391C6.7627 5.33518 6.15627 6.92358 6.07294 8.58102C5.87541 10.8537 6.40862 13.13 7.5949 15.0785C7.66038 15.0546 7.7302 15.0448 7.79974 15.0498H7.85724C8.29186 15.0419 8.71181 15.207 9.0247 15.5088C9.33758 15.8105 9.51778 16.2242 9.52564 16.6589C9.5335 17.0935 9.36839 17.5134 9.06662 17.8263C8.76486 18.1392 8.35116 18.3194 7.91654 18.3273H7.85724C7.43323 18.3258 7.02616 18.1607 6.72087 17.8664C6.41558 17.5722 6.23561 17.1715 6.21849 16.7478V16.7532Z" fill="url(#paint0_linear_1_1284)"/>
</g>
<defs>
<linearGradient id="paint0_linear_1_1284" x1="15.0381" y1="39.8781" x2="14.0764" y2="-16.5599" gradientUnits="userSpaceOnUse">
<stop stop-color="#12C6FF"/>
<stop offset="1" stop-color="#031CFF"/>
</linearGradient>
<clipPath id="clip0_1_1284">
<rect width="23" height="23" fill="white"/>
</clipPath>
</defs>
</svg>
