<svg width="24" height="14" viewBox="0 0 24 14" fill="none" xmlns="http://www.w3.org/2000/svg">
<path d="M12.1179 0.466003C11.9075 0.46413 11.6979 0.491047 11.4949 0.546003C11.2169 0.613003 10.7929 0.878003 10.5419 1.129C10.1319 1.552 10.0519 1.738 9.87988 2.598C9.79988 3.021 10.2899 4.028 10.7269 4.332C11.1769 4.649 11.8119 4.834 12.7919 4.94C14.2209 5.1 14.6319 5.576 14.6319 7.137C14.6319 8.514 14.2469 8.884 12.6719 9.043C10.9649 9.215 10.0919 9.877 9.90688 11.16C9.80088 11.941 10.3169 12.92 11.0319 13.251C12.6589 14.019 14.1819 13.053 14.4989 11.055C14.7099 9.771 15.1209 9.413 16.4969 9.308C18.0849 9.175 18.9059 8.633 19.2099 7.521C19.4879 6.501 18.9059 5.364 17.9129 4.967C17.6489 4.861 17.0399 4.729 16.5629 4.676C15.0679 4.516 14.6839 4.252 14.5249 3.286C14.2999 1.949 14.2079 1.724 13.7309 1.196C13.5283 0.967974 13.28 0.785132 13.0021 0.659363C12.7242 0.533594 12.4229 0.467713 12.1179 0.466003V0.466003ZM7.33288 4.826C7.16591 4.8226 6.99911 4.83871 6.83588 4.874C5.36688 5.192 4.66588 6.925 5.48588 8.169C6.66388 9.943 9.42988 9.122 9.45588 6.992C9.46788 5.799 8.47588 4.849 7.33288 4.826V4.826ZM2.08888 9.19C1.9452 9.19347 1.80219 9.21089 1.66188 9.242C-0.496121 9.718 -0.575121 12.868 1.55588 13.424C2.08588 13.569 2.13788 13.569 2.66688 13.437C3.85788 13.119 4.53288 11.981 4.21588 10.83C3.93788 9.81 3.07188 9.166 2.08888 9.19V9.19ZM21.9129 9.198C21.6799 9.2 21.4359 9.256 21.1289 9.36C19.7389 9.837 19.2629 11.452 20.1489 12.696C20.7059 13.49 22.1089 13.754 22.9689 13.212C24.3849 12.338 24.3319 10.155 22.8759 9.466C22.4959 9.28 22.2129 9.195 21.9129 9.198V9.198Z" fill="url(#paint0_linear_19_12)"/>
<defs>
<linearGradient id="paint0_linear_19_12" x1="15.6923" y1="23.7343" x2="15.3621" y2="-10.0502" gradientUnits="userSpaceOnUse">
<stop stop-color="#12C6FF"/>
<stop offset="1" stop-color="#031CFF"/>
</linearGradient>
</defs>
</svg>
