<svg width="33" height="33" viewBox="0 0 33 33" fill="none" xmlns="http://www.w3.org/2000/svg">
<path fill-rule="evenodd" clip-rule="evenodd" d="M0.314209 14.4777C0.314209 14.659 0.367576 14.7786 0.397482 14.8949C0.592389 15.651 1.01133 16.2999 1.5084 16.8919C2.21635 17.7354 3.08337 18.4145 3.97154 19.0531C4.74188 19.6069 5.52795 20.1483 6.30139 20.698C6.43416 20.7923 6.55972 20.9009 6.70383 21.0166C6.57983 21.0836 6.4767 21.1427 6.36945 21.1971C5.34877 21.7148 4.36676 22.2951 3.46158 22.9982C2.91605 23.422 2.38857 23.8724 2.01603 24.461C1.41662 25.4077 1.20444 26.4162 1.65122 27.4931C1.78168 27.8077 1.98071 28.0794 2.26147 28.2802C2.35247 28.3452 2.45457 28.4096 2.56104 28.4349C2.83381 28.4991 3.11173 28.5411 3.38785 28.5919L4.16979 28.5914C5.0345 28.5143 5.8216 28.2181 6.5329 27.7272C7.64459 26.96 8.39354 25.9313 8.71554 24.611C8.94964 23.6515 8.95918 22.6909 8.68332 21.7357C8.65692 21.6472 8.62646 21.5599 8.59205 21.4742C8.55854 21.3884 8.51909 21.3049 8.47269 21.1979L10.2454 20.1785L10.272 20.2012C10.2397 20.3066 10.2054 20.4118 10.1763 20.5183C9.96568 21.2876 9.82568 22.0703 9.87596 22.8687C9.92958 23.7195 10.167 24.5159 10.6651 25.2267C11.0678 25.8016 12.0274 25.823 12.4554 25.246C12.6072 25.0411 12.7544 24.8268 12.865 24.5981C13.154 24.0013 13.4217 23.3939 13.6978 22.7906L13.746 22.6803C13.7261 22.9659 13.7029 23.2168 13.6924 23.4679C13.6759 23.86 13.6988 24.2498 13.8329 24.6229C13.9476 24.9421 14.1428 25.1805 14.5083 25.2226C14.7584 25.2512 14.9577 25.1367 15.1415 24.9916C15.4263 24.7665 15.6623 24.4859 15.8353 24.1668C16.3254 23.2668 16.8286 22.3722 17.2729 21.4495C17.7534 20.4515 18.1737 19.4244 18.6199 18.4094L18.6937 18.2294C18.7991 18.6437 18.8726 19.0495 19.0079 19.4336C19.1652 19.8794 19.3598 20.3146 19.5718 20.7377C19.6721 20.9375 19.6605 21.0671 19.5215 21.2347C18.9399 21.936 18.3683 22.6457 17.7962 23.3547C17.6696 23.5112 17.5436 23.6705 17.4381 23.8415C17.3741 23.9494 17.3321 24.0689 17.3144 24.1931C17.2966 24.3075 17.3238 24.4243 17.3903 24.519C17.4568 24.6137 17.5573 24.6791 17.6709 24.7013C17.9001 24.7506 18.1352 24.7674 18.3691 24.751C19.1675 24.6922 19.8925 24.412 20.5334 23.9371C21.3638 23.322 21.6304 22.4825 21.4293 21.4876C21.3749 21.2177 21.2787 20.9553 21.1852 20.6951C21.1431 20.5778 21.1403 20.4956 21.2169 20.3863C21.8807 19.4383 22.4479 18.4326 22.9754 17.4036C22.9963 17.3632 23.0177 17.3227 23.0543 17.2794C23.2252 18.1688 23.4825 19.026 23.9435 19.8039C23.7084 20.0305 23.4756 20.236 23.2649 20.4623C22.8011 20.9609 22.3989 21.5023 22.1891 22.1626C22.0988 22.4472 22.0295 22.7365 22.0697 23.0404C22.1321 23.5125 22.5188 23.8193 22.9831 23.7118C23.9768 23.4818 24.8345 23.0136 25.4612 22.1842C25.883 21.6258 25.9214 21.003 25.7448 20.3504C25.6964 20.1731 25.6389 19.9985 25.577 19.7951C25.8222 19.719 26.0612 19.6278 26.3084 19.5713C27.5921 19.2784 28.8618 19.3295 30.0988 19.793C30.8209 20.0637 31.4043 20.5167 31.7503 21.2293C32.1729 22.1005 31.9393 22.927 31.1182 23.4777C31.0416 23.529 30.9539 23.5695 30.8905 23.6337C30.8702 23.6572 30.855 23.6847 30.8459 23.7145C30.8368 23.7442 30.834 23.7755 30.8377 23.8064C30.8431 23.8381 30.9269 23.8778 30.9751 23.8773C31.245 23.8752 31.4639 23.7337 31.674 23.5883C32.2005 23.224 32.5846 22.7339 32.6674 22.0886L32.6836 22.0401L32.6637 21.6199C32.6558 21.5957 32.6697 21.5717 32.6679 21.5534C32.556 20.6137 32.054 19.8848 31.3239 19.3135C30.4783 18.6522 29.4798 18.38 28.4238 18.3369C27.5673 18.3001 26.712 18.4317 25.9062 18.7244C25.675 18.8082 25.4458 18.9075 25.2132 19.001C25.182 18.9446 25.1485 18.8904 25.1209 18.8345C24.8822 18.3457 24.5929 17.8785 24.529 17.318C24.4836 16.92 24.4279 16.5224 24.5225 16.1288C24.6136 15.75 24.7321 15.3777 24.8438 15.0042C24.9013 14.8118 24.8608 14.7041 24.6772 14.6175C24.6133 14.5856 24.545 14.5631 24.4746 14.5509C24.0234 14.4855 23.5784 14.5228 23.1414 14.6499C22.9868 14.6951 22.8743 14.7817 22.8401 14.9529C22.8205 15.0511 22.7805 15.1452 22.7527 15.2421C22.6385 15.6451 22.5575 16.0558 22.3729 16.4397C21.9104 17.4026 21.3824 18.3292 20.842 19.2491C20.7835 19.3483 20.7219 19.4458 20.6481 19.5662C20.4584 19.1691 20.256 18.8128 20.1946 18.3952C20.1253 17.9229 20.0706 17.4513 20.1882 16.9826C20.2756 16.633 20.3898 16.2899 20.495 15.9449C20.5448 15.781 20.5218 15.6949 20.3733 15.6085C20.2983 15.5649 20.2135 15.5262 20.1289 15.5136C19.6663 15.4431 19.1936 15.4818 18.7486 15.6265C18.6086 15.6719 18.5351 15.7624 18.4923 15.9068C18.3665 16.3327 18.2592 16.7689 18.0826 17.1739C17.3675 18.8136 16.6317 20.4448 15.8967 22.0757C15.7433 22.4163 15.5636 22.745 15.3906 23.0765C15.3467 23.1606 15.2828 23.2346 15.2281 23.3135C15.1843 23.2616 15.1673 23.2261 15.1676 23.1905C15.1688 22.9809 15.1438 22.7651 15.1838 22.5625C15.3065 21.9496 15.4422 21.3394 15.5906 20.7323C15.7118 20.2305 15.8528 19.7335 15.9871 19.2351C16.0323 19.0683 16.033 18.9124 15.9132 18.7721C15.7118 18.5372 15.2911 18.4857 15.0415 18.6667L14.9311 18.729L14.9525 18.5512C15.0051 18.1699 15.0157 17.7898 14.911 17.4142C14.7806 16.946 14.4465 16.6766 13.9607 16.6916C13.7344 16.6985 13.4967 16.7372 13.2871 16.8197C12.4056 17.1652 11.7278 17.7769 11.1508 18.513C11.0974 18.5813 11.0311 18.6386 10.9557 18.6816C10.2098 19.0951 9.46165 19.5035 8.71374 19.9134L7.88126 20.3695C7.658 20.1566 7.4551 19.9356 7.22487 19.7482C6.52182 19.1748 5.80742 18.6156 5.09947 18.0487C4.47195 17.5462 3.86403 17.0228 3.39894 16.3574C3.05295 15.8624 2.82994 15.3208 2.80854 14.7087C2.78147 13.9288 3.00268 13.2162 3.39971 12.5529C3.9076 11.7042 4.60034 11.023 5.36192 10.4061C6.16758 9.75382 7.03899 9.20004 7.94211 8.69447C9.20565 7.98729 10.5053 7.36132 11.8988 6.94805C13.3276 6.5242 14.7772 6.2816 16.2725 6.45073C16.8604 6.51724 17.4312 6.65182 17.9553 6.93928C18.3567 7.1592 18.6859 7.44717 18.8391 7.89731C18.9901 8.34023 18.9855 8.78909 18.8808 9.23897C18.6681 10.1501 18.1693 10.9011 17.5415 11.5722C16.5118 12.6723 15.2557 13.4212 13.8416 13.9159C13.0286 14.2008 12.1826 14.3812 11.3241 14.453C10.6205 14.512 9.93165 14.4496 9.26546 14.205C8.82434 14.0428 8.4402 13.7948 8.13134 13.4349C8.07617 13.3704 8.00553 13.3005 7.90266 13.3609C7.80186 13.4202 7.78407 13.5161 7.81784 13.6133C7.8743 13.7747 7.92638 13.9428 8.0143 14.0871C8.23524 14.4494 8.55751 14.7121 8.91226 14.9374C9.59365 15.3708 10.3552 15.5164 11.1449 15.5502C12.3432 15.602 13.5124 15.4231 14.6651 15.1016C16.3107 14.6427 17.7416 13.8322 18.8891 12.5534C19.8445 11.4886 20.527 10.287 20.6731 8.83601C20.7446 8.1278 20.6685 7.43402 20.337 6.78795C19.9773 6.08798 19.4055 5.56746 18.7218 5.20884C17.7261 4.68677 16.6515 4.38281 15.5424 4.38281H14.4312C13.088 4.38281 11.7894 4.76773 10.5272 5.22689C9.57174 5.57468 8.63485 5.98512 7.72529 6.43938C5.74451 7.42912 3.89987 8.62254 2.3847 10.2635C1.62983 11.081 0.990709 11.9831 0.623068 13.0453C0.512107 13.3624 0.416519 13.6847 0.336639 14.0111L0.314209 14.4777ZM7.51388 23.2957C7.42803 24.4453 6.90699 25.3773 6.05544 26.1321C5.57642 26.5565 5.02702 26.8586 4.38713 26.9649C4.1551 27.0033 3.91765 27.0126 3.69258 26.9164C3.37161 26.7792 3.29968 26.4944 3.29349 26.1909C3.28395 25.7073 3.45333 25.27 3.68562 24.8539C3.98881 24.3115 4.43328 23.8979 4.90791 23.5117C5.65557 22.903 6.46665 22.3879 7.29732 21.9017L7.35997 21.8759C7.48836 22.3503 7.54946 22.8187 7.51388 23.2957V23.2957ZM13.9999 18.2995C13.9393 18.6667 13.8635 19.034 13.7563 19.3898C13.3856 20.6214 12.9094 21.8148 12.3945 22.9922C12.2994 23.2101 12.161 23.4089 12.0406 23.6154C12.0201 23.6471 11.9955 23.6761 11.9676 23.7015C11.8186 23.8487 11.6773 23.841 11.602 23.6484C11.5144 23.4246 11.4605 23.1851 11.4141 22.9481C11.3829 22.7891 11.3903 22.622 11.3806 22.4591C11.3906 21.3005 11.7441 20.2476 12.3437 19.2674C12.591 18.8631 12.8601 18.4779 13.2713 18.2222C13.3993 18.1427 13.5377 18.0814 13.6826 18.0402C13.9017 17.9786 14.0363 18.0799 13.9999 18.2995V18.2995ZM18.425 23.9374L20.0155 22.0804C20.0817 22.77 18.9095 24.1467 18.425 23.9374ZM23.5047 22.6878C23.3923 22.7522 23.2698 22.7986 23.1546 22.8582C23.0491 22.9128 23.0143 22.8577 23.0112 22.7669C23.0097 22.7041 23.0178 22.6414 23.0352 22.581C23.25 21.8236 23.6452 21.177 24.2333 20.651L24.2745 20.6299C24.5543 21.4124 24.231 22.2716 23.5047 22.6878Z" fill="url(#paint0_linear_1_1165)"/>
<defs>
<linearGradient id="paint0_linear_1_1165" x1="21.4788" y1="47.4868" x2="20.6388" y2="-15.0927" gradientUnits="userSpaceOnUse">
<stop stop-color="#12C6FF"/>
<stop offset="1" stop-color="#031CFF"/>
</linearGradient>
</defs>
</svg>
