<svg width="24" height="12" viewBox="0 0 24 12" fill="none" xmlns="http://www.w3.org/2000/svg">
<path d="M16.214 0.762001L16.139 1.153C16.023 1.894 16.065 2.106 16.383 2.381L16.69 2.635L16.372 4.053C16.182 4.899 15.949 5.608 15.801 5.841C15.674 6.042 15.526 6.338 15.494 6.497C15.441 6.687 15.261 6.878 14.986 7.047C14.743 7.185 14.266 7.555 13.928 7.852C13.658 8.095 13.472 8.244 13.371 8.308L13.041 8.569C12.935 8.739 12.875 8.876 12.852 8.98C12.829 9.087 12.842 9.158 12.876 9.21C12.909 9.26 12.966 9.295 13.044 9.317C13.1363 9.33864 13.2314 9.34639 13.326 9.34C13.5401 9.32538 13.7519 9.28783 13.958 9.228C14.028 9.209 14.083 9.191 14.131 9.175C14.205 9.084 14.376 8.912 14.679 8.613C15.483 7.82 15.79 7.386 15.473 7.503C15.356 7.545 15.409 7.439 15.61 7.227C16.034 6.814 16.277 6.19 16.785 4.233C17.187 2.688 17.187 2.666 17.483 2.666C17.622 2.666 18.015 2.69 18.015 2.69V0.762001H17.113H16.214ZM20.053 3.927C19.989 3.927 19.883 4.023 19.82 4.129C19.704 4.319 19.841 4.435 21.587 5.525C22.624 6.182 23.46 6.742 23.439 6.785C23.418 6.816 22.571 7.367 21.556 8.002C19.714 9.144 19.704 9.155 19.873 9.388C20.085 9.663 19.873 9.758 22.264 8.266L24 7.155V6.319L22.063 5.123C21.016 4.467 20.106 3.938 20.053 3.927ZM3.968 4.044C3.915 4.044 3.005 4.584 1.958 5.229L0 6.425V7.261L1.947 8.478C3.027 9.144 3.937 9.695 3.979 9.695C4.021 9.695 4.106 9.599 4.191 9.483C4.318 9.282 4.211 9.197 2.423 8.065C0.72 6.996 0.54 6.848 0.71 6.732C0.816 6.658 1.62 6.16 2.488 5.621C4.467 4.404 4.361 4.488 4.202 4.234C4.139 4.129 4.032 4.034 3.969 4.044H3.968ZM12.652 4.067C12.36 4.065 11.732 4.51 9.852 6.045C9.771 6.238 9.764 6.371 9.801 6.457C9.825 6.516 9.869 6.557 9.93 6.587C9.99 6.617 10.068 6.635 10.154 6.642C10.325 6.657 10.527 6.63 10.69 6.598L10.8 6.573C10.8377 6.52251 10.8871 6.482 10.944 6.455C11.06 6.391 11.547 5.947 12.034 5.471C12.891 4.603 13.092 4.211 12.743 4.084C12.7144 4.07261 12.6838 4.06684 12.653 4.067H12.652ZM14.848 4.67C14.591 4.677 14.128 4.975 13.335 5.608C12.937 5.931 12.685 6.105 12.55 6.141L12.026 6.555C11.829 6.915 11.8 7.138 11.852 7.261C11.865 7.29134 11.8839 7.31881 11.9076 7.3418C11.9313 7.3648 11.9593 7.38288 11.99 7.395C12.0664 7.42517 12.1479 7.44044 12.23 7.44C12.4263 7.43791 12.6214 7.40932 12.81 7.355C12.9083 7.32862 13.0054 7.29792 13.101 7.263L13.13 7.251L13.183 7.223C13.283 7.094 13.513 6.851 13.801 6.571C14.711 5.693 15.176 5.069 15.081 4.836C15.038 4.723 14.964 4.666 14.848 4.67V4.67ZM12.424 5.75C12.35 5.758 12.184 5.886 11.885 6.148C11.453 6.53 10.982 6.75 10.819 6.652C10.7811 6.66056 10.7431 6.66856 10.705 6.676C10.539 6.709 10.332 6.736 10.147 6.721C10.0598 6.71572 9.9744 6.69436 9.895 6.658C9.82011 6.62376 9.76035 6.56329 9.727 6.488C9.69 6.398 9.69 6.286 9.732 6.143L9.082 6.677L7.611 7.894V9.867L12.431 6.07C12.4301 6.02843 12.4355 5.98695 12.447 5.947C12.484 5.813 12.482 5.745 12.424 5.751V5.75ZM14.498 6.389C14.425 6.389 14.303 6.492 14.108 6.699C13.843 6.982 13.426 7.256 13.205 7.312L13.171 7.33C13.1347 7.34498 13.098 7.35899 13.061 7.372C13.001 7.392 12.923 7.416 12.833 7.44C12.653 7.489 12.429 7.534 12.229 7.529C12.1347 7.52888 12.0413 7.51054 11.954 7.475C11.8717 7.44107 11.8057 7.37655 11.77 7.295C11.712 7.156 11.735 6.961 11.862 6.684L7.61 10.033V11.238H9.478L13.44 8.126C13.543 8.012 13.698 7.856 13.907 7.661C14.467 7.142 14.594 6.963 14.594 6.698C14.594 6.492 14.571 6.388 14.498 6.388V6.389ZM15.441 8.339L15.102 8.677C14.912 8.857 14.573 9.079 14.341 9.174L14.295 9.194L14.292 9.199L14.282 9.209C14.273 9.216 14.269 9.217 14.262 9.22C14.1694 9.25506 14.0753 9.28608 13.98 9.313C13.7681 9.37467 13.5502 9.41323 13.33 9.428C13.2259 9.43468 13.1214 9.42557 13.02 9.401C12.932 9.38163 12.8543 9.33032 12.802 9.257C12.754 9.183 12.74 9.084 12.767 8.962C12.7885 8.87514 12.8204 8.7912 12.862 8.712L9.665 11.238H13.917L14.425 10.656C15.123 9.842 15.441 9.26 15.441 8.762V8.339Z" fill="url(#paint0_linear_19_18)"/>
<defs>
<linearGradient id="paint0_linear_19_18" x1="15.6923" y1="19.4144" x2="15.4801" y2="-7.66884" gradientUnits="userSpaceOnUse">
<stop stop-color="#12C6FF"/>
<stop offset="1" stop-color="#031CFF"/>
</linearGradient>
</defs>
</svg>
