<svg width="12" height="12" viewBox="0 0 12 12" fill="none" xmlns="http://www.w3.org/2000/svg">
<path d="M6 0C4.4087 0 2.88258 0.632141 1.75736 1.75736C0.632141 2.88258 0 4.4087 0 6C0 7.5913 0.632141 9.11742 1.75736 10.2426C2.88258 11.3679 4.4087 12 6 12C7.5913 12 9.11742 11.3679 10.2426 10.2426C11.3679 9.11742 12 7.5913 12 6C12 4.4087 11.3679 2.88258 10.2426 1.75736C9.11742 0.632141 7.5913 0 6 0V0ZM0.74 6.45333H2.41333C2.44 7.06 2.52467 7.66267 2.66667 8.25333H1.22667C0.958137 7.68725 0.793306 7.0776 0.74 6.45333ZM6.45333 2.85333V0.793333C7.09579 1.03748 7.6237 1.51308 7.93333 2.12667C8.07 2.358 8.19067 2.59867 8.29333 2.84667L6.45333 2.85333ZM8.6 3.75333C8.75467 4.342 8.84667 4.94533 8.87333 5.55333H6.45333V3.75333H8.6ZM5.54667 0.793333V2.85333H3.70667C3.80951 2.60513 3.92981 2.36453 4.06667 2.13333C4.37498 1.51724 4.90306 1.03911 5.54667 0.793333ZM5.54667 3.75333V5.55333H3.13333C3.16 4.94533 3.252 4.342 3.40667 3.75333H5.54667ZM2.41333 5.54667H0.74C0.793306 4.9224 0.958137 4.31275 1.22667 3.74667H2.66667C2.52439 4.3371 2.43956 4.9399 2.41333 5.54667ZM3.13333 6.45333H5.54667V8.25333H3.40667C3.25202 7.66472 3.1604 7.06132 3.13333 6.45333ZM5.55333 9.12V11.18C4.91088 10.9359 4.38296 10.4603 4.07333 9.84667C3.93648 9.61547 3.81617 9.37487 3.71333 9.12667L5.55333 9.12ZM6.45333 11.18V9.15333H8.29333C8.19049 9.40154 8.07019 9.64214 7.93333 9.87333C7.6237 10.4869 7.09579 10.9625 6.45333 11.2067V11.18ZM6.45333 8.22V6.42H8.86667C8.8396 7.02799 8.74798 7.63138 8.59333 8.22H6.45333ZM9.59333 6.42H11.2667C11.2134 7.04427 11.0485 7.65392 10.78 8.22H9.33333C9.47333 7.64 9.558 7.04867 9.58667 6.45333L9.59333 6.42ZM9.59333 5.52C9.56281 4.92421 9.47575 4.33266 9.33333 3.75333H10.7733C11.042 4.32 11.2067 4.92933 11.26 5.55333L9.59333 5.52ZM10.26 2.85333H9.06667C8.85075 2.24687 8.53779 1.67948 8.14 1.17333C8.96959 1.54572 9.69019 2.12403 10.2333 2.85333H10.26ZM3.86 1.17333C3.46221 1.67948 3.14925 2.24687 2.93333 2.85333H1.76667C2.30981 2.12403 3.03041 1.54572 3.86 1.17333ZM1.76 9.17333H2.93333C3.14925 9.7798 3.46221 10.3472 3.86 10.8533C3.02812 10.4753 2.3073 9.88996 1.76667 9.15333L1.76 9.17333ZM8.13333 10.8533C8.53112 10.3472 8.84408 9.7798 9.06 9.17333H10.2333C9.68687 9.89286 8.96656 10.4618 8.14 10.8267L8.13333 10.8533Z" fill="white"/>
</svg>
