<svg width="23" height="26" viewBox="0 0 23 26" fill="none" xmlns="http://www.w3.org/2000/svg">
<path d="M22.2912 19.6628L11.9536 25.5151V20.9568L18.385 17.415L22.2912 19.6628V19.6628ZM23 19.0229V6.79389L19.2173 8.98089V16.8399L22.998 19.0209L23 19.0229ZM0.708752 19.6628L11.0363 25.511V20.9568L4.60283 17.415L0.708752 19.6628ZM0 19.0229V6.79389L3.78271 8.98089V16.8399L0 19.0229ZM0.443476 6.00211L11.0464 0V4.40641L4.25251 8.14254L4.19783 8.17292L0.443476 6.00211ZM22.5525 6.00211L11.9536 0V4.40641L18.7475 8.14052L18.8022 8.17089L22.5565 6.00211H22.5525ZM11.0464 19.92L4.68991 16.4228V9.50132L11.0464 13.1625V19.92ZM11.9536 19.92L18.3101 16.4268V9.50132L11.9536 13.1625V19.92ZM5.12124 8.70752L11.5 5.19616L17.8788 8.70752L11.5 12.3849L5.12124 8.70752Z" fill="url(#paint0_linear_1_1315)"/>
<defs>
<linearGradient id="paint0_linear_1_1315" x1="15.0385" y1="45.4292" x2="13.7256" y2="-20.5118" gradientUnits="userSpaceOnUse">
<stop stop-color="#12C6FF"/>
<stop offset="1" stop-color="#031CFF"/>
</linearGradient>
</defs>
</svg>
