<svg width="35" height="35" viewBox="0 0 35 35" fill="none" xmlns="http://www.w3.org/2000/svg">
<g clip-path="url(#clip0_1_243)">
<path d="M9.31039 9.38235C7.04565 11.6471 5.77334 14.7187 5.77334 17.9216C5.77333 21.1244 7.04565 24.196 9.31039 26.4608C11.5751 28.7255 14.6468 29.9978 17.8496 29.9978C21.0524 29.9978 24.1241 28.7255 26.3888 26.4608C28.6536 24.196 29.9259 21.1244 29.9259 17.9216C29.9259 14.7187 28.6536 11.6471 26.3888 9.38235C24.1241 7.11761 21.0524 5.8453 17.8496 5.8453C14.6468 5.8453 11.5751 7.11761 9.31039 9.38235ZM12.6204 18.6762C12.5202 18.678 12.4207 18.6597 12.3276 18.6226C12.2345 18.5854 12.1497 18.5301 12.0782 18.4599C12.0068 18.3896 11.95 18.3059 11.9112 18.2134C11.8725 18.121 11.8525 18.0218 11.8525 17.9216C11.8525 17.8213 11.8725 17.7221 11.9112 17.6297C11.95 17.5373 12.0068 17.4535 12.0782 17.3833C12.1497 17.313 12.2345 17.2577 12.3276 17.2206C12.4207 17.1834 12.5202 17.1652 12.6204 17.1669H21.3646L18.41 14.2123C18.2684 14.0708 18.1889 13.8788 18.1889 13.6786C18.1889 13.4785 18.2684 13.2865 18.41 13.1449C18.5515 13.0034 18.7435 12.9239 18.9437 12.9239C19.1439 12.9239 19.3359 13.0034 19.4774 13.1449L23.7203 17.3879C23.8619 17.5294 23.9414 17.7214 23.9414 17.9216C23.9414 18.1217 23.8619 18.3137 23.7203 18.4553L19.4774 22.6982C19.3359 22.8397 19.1439 22.9193 18.9437 22.9193C18.7435 22.9193 18.5515 22.8397 18.41 22.6982C18.2684 22.5566 18.1889 22.3647 18.1889 22.1645C18.1889 21.9643 18.2684 21.7723 18.41 21.6308L21.3646 18.6762L12.6204 18.6762Z" fill="white"/>
</g>
<defs>
<clipPath id="clip0_1_243">
<rect width="24.1525" height="24.1525" fill="white" transform="translate(17.8496 35) rotate(-135)"/>
</clipPath>
</defs>
</svg>
