<svg width="18" height="18" viewBox="0 0 18 18" fill="none" xmlns="http://www.w3.org/2000/svg">
<g clip-path="url(#clip0_1_874)">
<path d="M4.45697 15.8438H1.32771V5.76652H4.45697V15.8438ZM2.89045 4.39191C1.88995 4.39191 1.07812 3.56283 1.07812 2.56233C1.07812 2.08167 1.26907 1.6207 1.60894 1.28082C1.94882 0.940941 2.40979 0.75 2.89045 0.75C3.37111 0.75 3.83209 0.940941 4.17196 1.28082C4.51184 1.6207 4.70278 2.08167 4.70278 2.56233C4.70278 3.56283 3.89095 4.39191 2.89045 4.39191ZM16.1686 15.8438H13.0464V10.9383C13.0464 9.76905 13.0227 8.26992 11.4195 8.26992C9.79261 8.26992 9.54302 9.53995 9.54302 10.8542V15.8438H6.417V5.76652H9.41796V7.14113H9.46163C9.8794 6.34924 10.8998 5.5137 12.4222 5.5137C15.5892 5.5137 16.1713 7.59933 16.1713 10.3081V15.8438H16.1686Z" fill="black"/>
</g>
<defs>
<clipPath id="clip0_1_874">
<rect width="17.25" height="17.25" fill="white" transform="translate(0 0.75)"/>
</clipPath>
</defs>
</svg>
