<svg width="16" height="16" viewBox="0 0 16 16" fill="none" xmlns="http://www.w3.org/2000/svg">
<path d="M3.45697 15.8438H0.327711V5.76652H3.45697V15.8438ZM1.89045 4.39191C0.889953 4.39191 0.078125 3.56283 0.078125 2.56233C0.078125 2.08167 0.269066 1.6207 0.608944 1.28082C0.948821 0.940941 1.40979 0.75 1.89045 0.75C2.37111 0.75 2.83209 0.940941 3.17196 1.28082C3.51184 1.6207 3.70278 2.08167 3.70278 2.56233C3.70278 3.56283 2.89095 4.39191 1.89045 4.39191ZM15.1686 15.8438H12.0464V10.9383C12.0464 9.76905 12.0227 8.26992 10.4195 8.26992C8.79261 8.26992 8.54302 9.53995 8.54302 10.8542V15.8438H5.417V5.76652H8.41796V7.14113H8.46163C8.8794 6.34924 9.89985 5.5137 11.4222 5.5137C14.5892 5.5137 15.1713 7.59933 15.1713 10.3081V15.8438H15.1686Z" fill="white"/>
</svg>
