<svg width="18" height="18" viewBox="0 0 18 18" fill="none" xmlns="http://www.w3.org/2000/svg">
<path d="M15.4407 8.49935L3.06571 2.31185C2.96872 2.26334 2.85978 2.24391 2.75199 2.25588C2.64421 2.26786 2.54219 2.31073 2.45821 2.37935C2.37801 2.44656 2.31815 2.53482 2.28536 2.63419C2.25257 2.73355 2.24815 2.8401 2.27259 2.94185L3.76321 8.43747H10.1251V9.56247H3.76321L2.25009 15.0412C2.22715 15.1262 2.22448 15.2154 2.24227 15.3015C2.26007 15.3877 2.29784 15.4686 2.35255 15.5375C2.40726 15.6064 2.47739 15.6616 2.55729 15.6985C2.63719 15.7354 2.72463 15.753 2.81259 15.75C2.90064 15.7494 2.98734 15.7282 3.06571 15.6881L15.4407 9.5006C15.5329 9.45339 15.6102 9.38168 15.6642 9.29335C15.7182 9.20502 15.7467 9.1035 15.7467 8.99997C15.7467 8.89645 15.7182 8.79493 15.6642 8.7066C15.6102 8.61827 15.5329 8.54655 15.4407 8.49935Z" fill="white"/>
</svg>
