<svg width="19" height="24" viewBox="0 0 19 24" fill="none" xmlns="http://www.w3.org/2000/svg">
<path d="M9.97119 13.5859L9.97851 13.5486C10.1201 12.9124 10.2983 12.1192 10.1592 11.4005C10.0664 10.8336 9.68311 10.6126 9.35596 10.5967C8.97021 10.578 8.62598 10.8176 8.54053 11.1663C8.3794 11.8051 8.52344 12.6782 8.78711 13.7908C8.45508 14.6533 7.92529 15.907 7.53711 16.6523C6.81445 17.0595 5.84521 17.6877 5.70117 18.481C5.67188 18.6273 5.70605 18.8137 5.78662 18.9814C5.87695 19.1677 6.021 19.3114 6.18945 19.3806C6.2627 19.4099 6.35059 19.4339 6.45313 19.4339C6.88281 19.4339 7.57861 19.0559 8.50635 17.3204C8.64795 17.2698 8.79443 17.2166 8.93604 17.1634C9.6001 16.9185 10.2886 16.6629 10.9111 16.5485C11.5996 16.9504 12.3833 17.2086 12.9155 17.2086C13.4429 17.2086 13.6504 16.8679 13.7285 16.6629C13.8652 16.3036 13.7993 15.8511 13.5771 15.6089C13.2549 15.2628 12.4712 15.1723 11.2505 15.3374C10.6499 14.9381 10.2568 14.3951 9.97119 13.5859ZM7.29297 17.6292C6.95361 18.1669 6.69727 18.4357 6.55811 18.5528C6.72168 18.2254 7.0415 17.8794 7.29297 17.6292ZM9.43164 11.3606C9.55859 11.5975 9.5415 12.3135 9.44385 12.6755C9.32422 12.1458 9.30713 11.3952 9.37793 11.3074C9.39746 11.31 9.41455 11.326 9.43164 11.3606ZM9.39258 14.5681C9.65381 15.0605 9.9834 15.4838 10.3472 15.7978C9.81982 15.9283 9.33887 16.1439 8.90918 16.3355C8.80664 16.3808 8.70654 16.426 8.60889 16.4686C8.93359 15.8271 9.20459 15.1005 9.39258 14.5681ZM13.1914 16.3116C13.1938 16.3169 13.1963 16.3249 13.1816 16.3355H13.1768L13.1719 16.3435C13.1523 16.3568 12.9521 16.4846 12.0903 16.1146C13.0815 16.064 13.189 16.3089 13.1914 16.3116ZM17.8643 5.97843L12.6104 0.25021C12.4639 0.0905016 12.2661 0 12.0586 0H1.6875C1.25537 0 0.90625 0.380639 0.90625 0.851779V22.998C0.90625 23.4692 1.25537 23.8498 1.6875 23.8498H17.3125C17.7446 23.8498 18.0938 23.4692 18.0938 22.998V6.58266C18.0938 6.3564 18.0107 6.13814 17.8643 5.97843ZM16.292 6.97394H11.6973V1.96442L16.292 6.97394ZM16.3359 21.9333H2.66406V1.9165H10.0371V7.66601C10.0371 7.96252 10.1451 8.24687 10.3374 8.45653C10.5297 8.66619 10.7905 8.78397 11.0625 8.78397H16.3359V21.9333Z" fill="white"/>
</svg>
